<svg width="533" height="182" viewBox="0 0 533 182" fill="none" xmlns="http://www.w3.org/2000/svg">
<g id="Logo" clip-path="url(#clip0_96_310)">
<g id="Group">
<path id="Vector" d="M97.9091 164.156C97.5829 161.748 96.7381 159.577 95.2601 157.77C93.4831 155.579 92.3979 153.047 92.2316 149.968C92.0386 146.431 90.2984 144.1 87.5428 142.859C86.6372 142.449 85.9949 141.894 85.5627 140.932C85.0467 139.784 84.4578 138.668 84.0287 137.478C83.4829 135.969 82.531 134.954 81.2496 134.623C79.7551 134.231 79.0963 133.173 78.7669 131.618C78.6438 131.048 78.4775 130.49 78.404 129.912C77.9019 126.185 76.1542 123.455 73.4119 121.571C72.5367 120.966 72.1007 120.124 71.6882 119.081C70.8492 116.968 70.0838 114.714 68.8457 112.946C67.0814 110.429 64.862 108.491 61.7269 109.933L61.3309 109.805C60.9519 108.879 60.6087 107.847 60.1295 106.908C58.958 104.632 58.1926 104.431 56.229 105.749L55.9599 105.769C55.7898 105.358 55.607 104.904 55.4141 104.45C54.742 102.884 54.1391 101.266 53.3743 99.7621C52.6883 98.412 51.86 97.1873 50.2392 97.2761C49.8266 97.2991 49.397 96.8495 48.6684 96.4508C49.4839 95.7906 49.9061 95.3528 50.3921 95.0739C51.9064 94.1933 53.0513 92.9134 53.6237 91.0522C53.8833 90.2144 54.3662 89.7493 55.0149 89.5164C55.8101 89.2332 56.6288 88.9817 57.4544 88.896C59.6775 88.6631 61.1518 87.1199 62.2333 85.0879C63.3483 82.9938 64.1702 80.6985 64.5166 78.2243C64.6931 76.9444 64.886 75.7812 66.0176 75.0024C66.5532 74.6342 66.8864 73.6604 67.0825 72.8854C67.3224 71.9004 67.4258 70.8335 67.4156 69.81C67.3991 68.0302 67.7818 66.5416 68.8798 65.2151C70.8903 62.8074 71.459 59.8289 70.9899 56.5599C70.6104 53.9193 70.3711 51.3327 71.2133 48.6921C72.2148 45.5665 71.5757 42.7861 69.2827 40.6809C68.5808 40.0369 68.3207 39.3277 68.4406 38.339C68.5136 37.7608 68.5637 37.1752 68.5866 36.5902C68.6666 34.5855 68.7663 32.5809 68.7764 30.5725C68.7764 30.0216 68.6096 29.3702 68.3271 28.9317C66.3336 25.8489 64.7325 24.9068 61.9204 26.0508C61.341 26.2874 60.7585 26.5476 60.1599 26.6557C59.1914 26.8413 58.8487 26.4774 58.7453 25.3409C58.6723 24.5032 58.6622 23.6505 58.5156 22.8283C58.2225 21.1031 57.3675 20.2653 55.8463 20.1722C55.2936 20.1368 54.7249 20.1684 54.1823 20.2926C52.5018 20.6764 51.0573 20.351 49.6929 19.0009C48.7345 18.0433 47.5497 17.3763 46.4149 16.6863C44.4412 15.484 42.4078 14.414 40.4474 13.1844C39.2365 12.4168 37.9818 12.0131 36.62 11.9554C35.9542 11.9243 35.2688 12.033 34.6164 11.897C32.4535 11.4437 30.7058 12.3628 29.0487 13.8712C27.2019 15.5505 25.3214 17.1863 23.3909 18.7339C20.8549 20.7696 18.1094 21.7893 15.0175 20.6379L14.3651 20.4827C13.1072 20.0212 11.9719 20.4013 10.8174 21.0292C8.95726 22.0452 7.40943 23.4953 6.08812 25.2906C5.31261 26.3495 4.52377 26.7525 3.32558 26.1129C2.26065 25.5502 1.64504 25.7831 1.13922 26.7569C-0.0717578 29.0876 -0.854202 32.9379 1.65836 35.7139C2.06451 36.1598 2.47065 36.6063 2.90025 37.0206C4.64103 38.6998 4.87661 40.8088 4.23435 43.1935C3.95506 44.2443 3.64538 45.2994 3.47909 46.3769C2.80324 50.8166 3.10013 54.9427 6.34823 58.1112C7.02674 58.7707 7.60611 59.5967 8.1487 60.4183C9.12036 61.8883 9.8527 63.4508 9.41031 65.448C9.07719 66.9521 8.93434 68.5109 8.60815 70.0119C8.33152 71.28 8.33152 72.4233 8.97432 73.5561C9.20404 73.9591 9.36714 74.5367 9.32716 75.0024C9.2211 76.2196 9.44389 77.317 9.89321 78.3951C10.3761 79.5465 10.4156 80.691 10.1032 81.9703C9.59047 84.0564 9.78714 86.0883 11.0482 87.8446C11.5871 88.5929 12.0732 89.3841 12.612 90.1325C13.4142 91.2416 13.8102 92.4166 13.4339 93.9058C13.0081 95.5888 13.2309 97.1941 13.8832 98.8107C15.268 102.25 16.1666 105.895 16.1799 109.707C16.1831 111.868 16.3596 114.128 15.2483 116.133C14.3096 117.82 14.8453 119.522 15.8036 120.809C17.1351 122.6 17.7576 124.706 18.4228 126.847C18.7357 127.859 18.6627 128.72 18.1734 129.616C16.7055 132.311 16.6255 135.203 17.2214 138.244C17.6409 140.38 18.466 142.281 19.4643 144.08C20.1764 145.363 20.712 146.689 20.9119 148.186C21.0787 149.458 21.511 150.524 22.3766 151.369C22.6495 151.637 22.9155 152.087 22.9453 152.486C23.1249 154.603 23.5577 156.69 23.0354 158.862C22.5029 161.068 22.9421 162.239 24.6696 163.437C25.8278 164.239 26.2536 165.38 26.3203 166.807C26.3704 167.908 26.3069 169.021 26.3538 170.122C26.4471 172.069 26.9561 173.825 28.2876 175.129C28.8899 175.718 29.5391 176.323 30.3908 175.904C31.259 175.485 31.6124 174.578 31.629 173.547C31.6519 172.318 31.6023 171.076 31.5325 169.847C31.4126 167.703 31.4792 165.668 33.3697 164.457L33.616 164.197C35.5998 161.906 35.8061 159.501 34.4283 156.655C33.4166 154.561 32.954 152.339 33.859 149.955C34.2151 149.016 34.5119 147.98 34.5748 146.965C34.6313 145.972 34.5546 144.844 34.1857 143.975C33.4699 142.3 32.5287 140.749 31.6396 139.175C30.2453 136.709 29.4564 134.193 30.9574 131.385L31.1636 130.854C32.5878 127.826 32.7141 124.801 31.1039 121.803C30.6115 120.887 30.548 120.008 31.1007 119.085C32.1289 117.387 31.9258 115.688 31.1237 113.951C30.6477 112.927 30.2352 111.849 29.902 110.755C29.263 108.661 29.8423 107.389 31.9823 106.505C32.8309 107.583 33.746 108.804 34.7113 109.972C36.1456 111.701 37.9295 112.368 39.9 111.713C41.3844 111.221 42.2628 111.938 42.985 113.21C43.7536 114.567 44.406 116.009 45.1949 117.343C45.8238 118.402 46.5092 119.445 47.3082 120.329C48.1434 121.264 48.7958 121.14 49.631 120.201C51.1821 118.441 51.5146 118.41 52.9959 120.205C53.8081 121.202 54.6833 121.911 55.9082 121.741C56.8233 121.609 57.4059 122.055 57.7683 122.99C58.5438 124.998 59.3759 126.98 60.088 129.015C60.9802 131.575 62.4545 132.381 64.5811 131.334C64.8871 131.183 65.1872 131.009 65.4995 130.861C66.7009 130.295 66.824 130.267 67.5132 131.624C68.3617 133.296 69.1372 135.026 69.8493 136.786C70.8044 139.133 72.3752 140.671 74.4955 141.106C75.7864 141.373 76.4654 142.079 76.9846 143.3C77.2543 143.941 77.5805 144.553 77.8502 145.193C79.1017 148.152 80.5194 150.913 83.4445 152.011L84.0037 152.429C85.4449 153.592 86.8062 154.798 86.9026 157.125C87.0023 159.437 87.8141 161.522 88.5534 163.632C89.0592 165.071 89.7947 166.23 90.9865 166.975C91.9549 167.584 92.6137 168.491 92.9996 169.717C93.369 170.872 93.8151 172 94.2842 173.101C94.9398 174.63 96.131 175.58 96.9668 175.323C97.8355 175.056 98.2945 173.943 98.2513 172.031C98.2348 171.194 97.8654 170.263 98.0749 169.537C98.6116 167.68 98.1489 165.924 97.9091 164.156ZM47.1329 81.4561C46.7869 81.712 46.3472 81.8169 45.9379 81.9219C45.0291 82.1697 44.0809 82.2746 43.1988 82.6162C42.2005 83.0043 41.2118 83.4925 40.2934 84.0973C39.5877 84.5668 38.9055 85.191 38.3965 85.9157C37.6641 86.9665 36.8022 87.6956 35.6238 88.2464C35.224 87.8552 34.8419 87.3931 34.3926 87.0404C32.4221 85.4928 31.2308 85.381 29.6568 86.7572C29.2273 87.1335 28.7246 87.3857 27.8761 87.944C28.036 86.7187 28.0792 85.9201 28.2556 85.1636C28.4187 84.4811 28.7513 83.857 28.9677 83.19C29.6334 81.1425 29.4303 80.2855 27.826 79.0987C27.1672 78.6143 26.9172 78.0554 26.9343 77.1953C26.9609 75.8961 26.9444 74.5932 26.9375 73.2903C26.9311 71.3707 26.275 69.9361 24.7378 69.071C23.7059 68.4891 23.6164 68.0706 23.8695 66.7366C24.0289 65.9224 24.1622 65.0847 24.2421 64.2513C24.5251 61.4436 23.3205 59.4892 21.5499 57.8255C21.2472 57.5423 20.9375 57.0033 20.9476 56.5884C20.9876 54.5993 20.4184 52.6101 21.0878 50.6129C21.5105 49.3448 20.8213 48.3288 20.0826 47.5103C18.9244 46.2384 18.7879 44.6952 19.0741 43.0277C19.3103 41.6242 19.863 41.2013 21.0713 41.3951C21.4007 41.4534 21.7471 41.4609 22.0627 41.5696C24.8055 42.5353 26.9652 41.3218 28.8755 39.1345C29.1915 38.77 29.5241 38.4166 29.8338 38.0446C30.8822 36.7802 32.1769 36.3343 33.6416 36.5132C34.5866 36.6256 35.5182 36.8889 36.4606 36.9473C37.6785 37.0249 38.8969 36.9709 40.2545 36.9709C42.9168 42.6048 44.0585 43.2799 48.1589 41.5422C49.1439 42.7017 50.252 43.7531 49.5298 45.8C49.2004 46.7427 49.4999 47.7469 50.0755 48.5337C50.8676 49.6236 51.6596 50.7173 52.5284 51.7215C53.1174 52.4077 53.8364 52.943 54.5122 53.5597C54.0794 54.3931 53.8732 54.8353 53.6301 55.2427C52.6419 56.9064 52.4453 58.0696 53.5203 59.5041C55.0047 61.4778 54.226 63.5563 54.1391 65.6312L53.9297 66.1429C52.8717 67.5315 51.7929 68.9077 50.7381 70.3C49.6934 71.6768 49.3805 73.3983 49.1407 75.1316C49.001 76.1551 48.9515 77.199 48.8113 78.2262C48.6269 79.5558 48.1445 80.719 47.1329 81.4561Z" fill="#1ABED6"/>
<path id="Vector_2" d="M531.9 80.157C531.118 79.7154 530.37 79.9241 529.637 80.293C527.75 81.2431 525.836 82.1386 524.002 83.213C522.818 83.903 521.567 84.6712 520.675 85.7648C517.883 89.2003 513.863 90.4486 510.867 93.4854L510.568 93.6555C507.885 94.9156 505.252 96.362 502.5 97.3742C500.101 98.2549 497.634 98.7852 496.017 101.461C495.977 100.764 496.03 100.197 496.196 99.6776C496.689 98.1462 496.463 96.7346 495.748 95.4C495.218 94.4076 494.616 93.4655 494.09 92.4688C493.837 91.9918 493.524 91.4335 493.531 90.9212C493.558 89.6456 493.072 88.719 492.459 87.7415C492.067 87.1019 491.744 86.2374 491.724 85.4655C491.621 81.4443 491.637 77.4226 491.57 73.4058C491.537 71.3819 490.789 69.8107 489.265 68.7332C488.822 68.419 488.326 67.8762 488.196 67.3334C487.271 63.4048 485.241 59.8799 485.088 55.6731C485.067 55.2272 484.954 54.7695 484.818 54.3509C483.719 51.016 482.665 47.6618 481.47 44.3779C480.978 43.0203 480.212 41.7758 479.463 40.5697C479.177 40.1195 478.471 39.5811 478.145 39.7164C477.666 39.9065 477.133 40.62 477.037 41.2019C476.864 42.2608 476.967 43.3848 477.003 44.4865C477.096 47.8488 477.213 51.2184 477.325 54.6384C475.508 55.1116 475.069 56.5232 475.172 58.2137C475.312 60.4748 475.538 62.7235 475.758 64.9723C475.885 66.2597 476.168 67.5321 476.201 68.8189C476.261 71.3508 476.224 73.8908 476.188 76.4227C476.148 79.2614 476.544 82.007 477.593 84.5662C478.465 86.7137 479.007 88.932 479.097 91.2975C479.147 92.5271 479.203 93.7642 479.17 94.9939C479.14 96.2111 479.519 97.1687 480.321 97.8791C480.881 98.3716 481.52 98.7393 482.448 99.3913C481.723 102.458 481.053 105.603 480.228 108.697C479.44 111.668 478.371 114.518 479.1 117.791C479.432 119.268 478.923 119.874 477.659 120.381C476.87 120.7 476.045 120.905 475.266 121.258C473.246 122.176 471.189 123.018 469.246 124.135C467.572 125.101 467.475 126.338 468.659 128.04L468.916 128.47L468.723 128.835C468.347 129.106 467.961 129.366 467.565 129.602C465.039 131.126 462.999 133.321 461.198 135.834C459.977 137.54 459.957 138.688 460.948 140.429C462.104 142.449 462.076 143.124 460.549 144.732C458.692 146.695 456.788 148.599 454.878 150.487C454.013 151.344 453.28 152.264 452.881 153.543C452.748 153.973 452.425 154.489 452.083 154.633C450.059 155.49 448.794 157.239 447.809 159.344C446.933 161.221 445.762 162.749 444.125 163.738C443.24 164.269 442.274 164.63 441.406 165.196C437.522 167.728 434.333 171.295 431.158 174.848C430.429 175.662 430 176.892 429.577 178.004C429.134 179.156 428.922 180.389 429.946 181.378C430.808 182.207 431.837 182.212 433.058 181.374L433.74 180.816C436.003 178.602 438.23 176.341 440.529 174.181C441.382 173.378 442.34 172.595 443.361 172.2C445.358 171.424 447.425 170.869 449.488 170.33C451.718 169.741 453.658 168.678 455.276 166.7C457.425 164.064 459.702 161.566 461.935 159.019C462.291 158.616 462.674 158.209 463.097 157.914C464.541 156.898 465.596 155.456 466.202 153.683C467.274 150.535 469.057 147.975 470.904 145.451C471.733 144.314 472.651 143.256 473.423 142.065C473.913 141.313 474.362 140.434 474.555 139.525C475.167 136.717 476.545 134.663 478.596 133.096C481.438 130.917 484.226 128.664 487.055 126.458C488.293 125.496 489.199 124.236 489.871 122.685C490.293 121.712 490.833 120.781 491.432 119.94C493.153 117.516 495.359 116.019 497.965 115.127C502.145 113.696 505.117 110.493 506.997 105.952C507.49 104.766 508.238 103.963 509.144 103.32C509.756 102.878 510.425 102.521 511.101 102.226C513.064 101.365 514.735 100.004 516.305 98.4027C517.225 97.4643 518.196 96.5377 519.265 95.8745C522.499 93.8816 525.355 91.2988 528.001 88.3905C529.542 86.7001 531.013 84.9128 532.447 83.1012C533.368 81.9486 533.105 80.8357 531.9 80.157Z" fill="#1ABED6"/>
<path id="Vector_3" d="M88.5371 87.8738C88.4737 85.4307 88.8335 83.0969 89.5754 80.8202C90.1249 79.1372 90.4106 77.3574 89.7118 75.6943C88.9358 73.8479 88.7567 72.0029 89.0664 70.033V69.2536C88.9795 67.7607 88.374 67.0316 87.0863 66.8918C85.9382 66.7757 84.8829 67.0775 83.9112 67.8339C83.5717 68.1016 83.1229 68.3537 82.7365 68.3264C80.71 68.183 79.9542 68.8381 80.2106 71.1142C80.4835 73.5803 80.2303 75.8917 79.4916 78.179C79.3748 78.5398 79.345 78.9354 79.2752 79.3192C79.022 80.719 79.1883 81.9132 80.4499 82.5771C81.2521 82.9994 81.4381 83.8291 81.3022 84.6941C81.1721 85.5089 80.8827 86.2958 80.6162 87.0714C80.1637 88.3979 79.6046 89.6772 79.2155 91.0224C78.5796 93.237 78.7763 95.269 80.4867 96.8041C81.1556 97.4053 81.5015 98.1921 81.4647 99.1615C81.3917 101.101 81.388 103.052 81.1588 104.967C81.0058 106.277 80.7958 107.553 81.2952 108.783C81.751 109.9 81.8245 111.036 81.5916 112.199C81.3086 113.626 81.5649 114.906 82.244 116.089C82.8596 117.156 83.0824 118.33 83.0525 119.602C83.0328 120.769 83.0493 121.941 83.0493 123.111H83.003C83.003 124.476 82.9662 125.844 83.0131 127.21C83.0696 128.862 83.3857 130.444 84.4106 131.681C85.5454 133.046 86.9003 132.886 87.7691 131.297C87.9982 130.863 88.212 130.355 88.2578 129.858C88.4076 128.319 88.6341 126.752 88.5376 125.221C88.3143 121.513 88.6341 117.962 90.1713 114.634C90.4341 114.077 90.514 113.405 90.7107 112.796C91.5459 110.26 91.2863 107.829 90.2049 105.476L90.0487 105.13C89.5029 103.866 89.5226 102.656 90.1883 101.431C90.724 100.446 91.127 99.3559 91.6893 98.3902C92.9642 96.2229 92.7841 93.4152 90.3013 91.721C88.923 90.782 88.5771 89.5176 88.5371 87.8738Z" fill="#1ABED6"/>
<path id="Vector_4" d="M82.114 59.8612C83.4188 61.102 84.9394 61.5523 86.5 60.8927C88.1108 60.214 88.8863 58.6397 89.0126 56.6586C89.1821 53.9987 89.5083 51.3929 90.0573 48.7908C90.6462 45.9913 89.1821 44.2573 86.4995 44.6921C86.6429 43.7537 86.7889 43.0097 86.8625 42.2533C87.0959 40.012 85.6776 37.926 83.9939 38.1508C82.7093 38.3216 81.5144 38.8724 80.6024 40.0511C79.5838 41.3696 79.2278 43.4283 80.0635 44.91C80.8124 46.221 80.5928 47.2712 80.0236 48.5008C79.441 49.7534 78.8888 51.0526 78.5328 52.4021C78.0563 54.2366 78.2561 56.0276 79.5678 57.4007C80.3903 58.2559 81.2617 59.0502 82.114 59.8612Z" fill="#1ABED6"/>
<path id="Vector_5" d="M431.102 92.9419C429.825 93.3332 429.289 94.3691 429.542 95.8502C429.834 97.5717 430.73 98.5455 432.224 98.3902C433.529 98.2548 434.59 98.7976 435.742 99.3056C437.476 100.073 438.801 101.965 440.967 101.66C440.831 102.16 440.798 102.497 440.661 102.76C439.789 104.494 439.466 106.351 439.413 108.348C439.386 109.256 439.004 110.221 438.594 111.032C438.045 112.125 437.869 113.218 438.152 114.39C438.375 115.324 438.631 116.274 439.037 117.112C439.52 118.108 439.546 118.923 439.13 120C438.241 122.327 438.002 124.747 439.104 127.139C439.28 127.527 439.419 128.007 439.403 128.434C439.28 131.218 439.473 134.115 438.871 136.752C438.029 140.421 437.955 144.062 438.029 147.757C438.062 149.448 438.361 151.139 439.267 152.534C440.135 153.868 441.217 153.756 441.939 152.317C442.106 151.987 442.195 151.6 442.296 151.227C442.784 149.374 443.267 147.516 443.737 145.648C443.986 144.655 444.305 143.667 444.412 142.65C444.859 138.276 445.285 133.894 445.627 129.509C445.817 127.073 446.149 124.747 447.404 122.707C447.687 122.246 447.94 121.664 447.977 121.117C448.097 119.248 448.319 117.352 447.713 115.521C447.434 114.684 447.467 113.885 447.85 113.094C448.995 110.718 449.105 108.173 448.825 105.536C448.696 104.334 448.712 103.105 448.662 101.892L449.068 101.546C449.647 101.86 450.336 102.031 450.786 102.512C452.699 104.563 455.029 104.773 457.362 104.354C458.653 104.118 459.622 104.35 460.61 105.219C461.888 106.347 463.355 106.929 464.964 107.003C467.223 107.095 468.085 106.192 468.188 103.645C468.644 103.261 469.127 102.924 469.546 102.501C470.694 101.333 470.801 99.8912 469.726 98.6069C469.201 97.9747 468.512 97.432 467.805 97.1221C466.878 96.7147 465.872 96.493 464.884 96.3421C464.175 96.234 463.643 95.9545 463.173 95.3149C462.258 94.0548 461.036 93.481 459.629 93.4537C458.574 93.4344 457.516 93.4493 456.437 93.4493C455.016 91.1695 454.581 91.0068 451.935 91.418C450.8 91.5881 449.635 91.9222 448.31 91.2472C448.58 90.2467 448.757 89.227 449.122 88.319C450.221 85.5896 450.962 82.7311 451.422 79.7924C451.922 76.5935 452.454 73.4256 453.751 70.5012L453.851 70.1292C454.141 67.8842 454.197 65.7243 452.544 64.0295C451.225 62.6838 451.196 62.331 452.071 60.5704C452.966 58.7713 453.941 57.0225 454.753 55.1762C455.226 54.1024 455.635 52.9039 455.742 51.7214C455.948 49.3448 454.55 47.9835 452.5 48.3635C450.666 48.7045 449.568 50.0776 448.839 51.9661C448.317 53.3193 447.751 54.6496 447.194 55.9947C445.77 59.4383 444.27 62.839 443.85 66.7285C443.701 68.1208 443.241 69.474 442.839 70.8155C442.217 72.9133 441.707 75.0384 441.741 77.276C441.76 78.8037 441.474 80.2234 440.892 81.5958C440.106 83.457 439.896 85.3965 440.249 87.4707C440.645 89.7977 440.026 90.6237 438.036 90.6348C436.951 90.6386 435.91 90.7547 435.045 91.6043C434.282 92.3526 433.397 92.6314 432.425 92.6979C431.981 92.7283 431.532 92.8103 431.102 92.9419Z" fill="#1ABED6"/>
<path id="Vector_6" d="M128.321 109.309C126.327 110.98 125.026 110.996 123.006 109.352C122.41 108.868 121.847 108.328 121.245 107.863C120.19 107.041 119.085 106.769 118.003 107.793C117.348 108.41 116.682 108.394 115.983 107.976C114.808 107.266 113.71 107.538 112.662 108.313C111.86 108.899 111.114 109.597 110.299 110.147C109.174 110.9 108.132 110.206 108.116 108.701C108.109 108.196 108.196 107.653 108.372 107.193C108.731 106.247 109.157 105.335 109.593 104.435C110.142 103.311 110.838 102.26 111.277 101.081C112.286 98.3673 111.917 97.0258 109.883 95.4547C109.653 95.2764 109.421 95.1056 109.051 94.8262C109.34 92.3135 110.725 90.8361 112.189 89.4053C114.152 87.4894 116.136 85.5971 118.026 83.5844C119.085 82.456 119.787 81.045 119.048 79.2844C120.103 78.5087 121.165 78.2138 122.306 78.2256C123.255 78.2336 124.204 78.2374 125.152 78.1945C127.548 78.0858 129.638 77.1984 131.109 74.864C131.732 73.8709 132.021 72.7388 131.496 71.5713C131.017 70.4975 130.191 70.0088 129.146 70.0628C127.312 70.1553 125.476 70.187 123.648 70.377C122.82 70.4659 122.151 70.4739 121.562 69.648C120.916 68.7444 120.018 68.4457 119.002 68.5196C116.483 68.7096 114.206 69.6945 112.28 71.5794C111.684 72.1613 111.095 73.1108 110.998 73.9678C110.762 76.1315 109.744 77.14 108.03 77.5002L107.234 77.7871C103.9 78.9 102.798 80.478 102.342 84.4333C102.155 86.0852 101.965 87.8651 101.314 89.2922C100.381 91.3087 99.8926 93.3444 99.786 95.5813C99.7194 97.0594 99.2269 98.335 98.3618 99.4354C97.7595 100.199 97.0773 100.94 96.6781 101.844C96.152 103.027 95.6995 104.326 95.5161 105.636C95.2832 107.269 96.1984 108.335 97.6098 108.459C97.8629 108.482 98.1156 108.463 98.5281 108.463C98.1651 109.189 97.8027 109.7 97.6295 110.293C97.2932 111.445 96.9003 112.624 96.814 113.814C96.6775 115.675 97.436 116.544 99.0638 116.691C99.842 116.765 100.624 116.723 101.406 116.742C103.031 116.789 103.54 117.413 103.224 119.266C102.938 120.976 103.23 122.449 104.445 123.419C105.567 124.323 105.797 125.502 105.823 126.925C105.84 127.829 105.92 128.752 106.136 129.617C106.299 130.267 106.638 130.92 107.037 131.423C107.723 132.299 108.681 132.396 109.417 131.601C110.052 130.908 110.618 130.062 111.034 129.17C111.67 127.805 112.093 126.3 112.715 124.928C113.207 123.85 113.783 122.795 114.458 121.869C115.047 121.058 115.783 120.686 116.831 121.147C117.47 121.43 118.379 121.244 119.061 120.941C119.877 120.581 120.652 119.972 121.304 119.29C122.439 118.092 123.647 117.762 125.148 118.053C128.593 118.72 131.761 116.068 132.313 112.058C132.43 111.232 132.28 110.193 131.917 109.484C131.15 107.968 129.902 107.983 128.321 109.309Z" fill="#1ABED6"/>
<path id="Vector_7" d="M430.61 139.649C431.163 138.757 431.343 137.71 431.072 136.679C430.637 135.011 430.148 133.352 429.566 131.742C428.61 129.133 428.065 126.543 428.457 123.615C429.072 119.008 428.197 114.63 425.788 110.884C424.756 109.283 424.379 107.766 424.606 105.862C424.75 104.653 424.74 103.408 424.127 102.272C422.729 99.6857 421.388 97.0644 418.972 95.5019C418.126 94.9591 418.157 93.7916 418.989 93.1445C419.498 92.7526 420.104 92.547 420.639 92.198C421.607 91.5739 422.626 91.0075 423.498 90.2244C424.583 89.2469 425.735 88.5607 427.085 88.262C427.607 88.1452 428.11 87.8235 428.59 87.5217C430.221 86.4982 431.289 84.8575 432.221 83.0466C432.763 81.9921 432.96 80.8867 432.846 79.6881C432.773 78.913 432.763 78.1138 432.58 77.3735C432.321 76.3345 432.134 75.1204 431.545 74.3758C430.434 72.9605 429.718 71.2968 428.84 69.7343C428.307 68.7767 428.111 68.0358 428.687 66.9304C429.536 65.3095 429.203 63.8631 428.018 62.5602C426.706 61.1331 425.206 60.4891 423.415 60.9623C421.921 61.3536 420.536 60.9431 419.215 60.16C417.141 58.9266 415.81 59.0471 414.286 61.048C412.739 63.0837 411.374 65.3138 409.936 67.462C409.71 67.7986 409.503 68.1557 409.241 68.5823C408.372 67.6514 408.442 66.5311 408.329 65.461C408.075 63.08 407.87 60.6872 407.46 58.3453C407.217 56.9536 406.411 56.3481 405.476 56.34C404.455 56.3251 403.51 57.1778 403.2 58.5198C403.074 59.0545 403.127 59.652 403.11 60.2221C403.057 61.9013 403.09 63.588 402.941 65.2592C402.658 68.4817 402.052 71.6849 401.982 74.9112C401.909 78.4516 401.463 81.8753 400.817 85.3152C400.601 86.4821 400.714 87.7502 400.78 88.9674C400.864 90.5343 401.666 91.554 402.821 92.2943C404.258 93.2097 404.601 94.3461 403.986 96.1639C403.643 97.1917 403.17 98.1574 402.828 99.1889C402.239 100.958 402.142 102.779 402.957 104.47C403.839 106.305 403.866 108.065 403.37 110.074C402.981 111.655 402.821 113.435 403.003 115.059C403.239 117.154 403.256 119.193 403.04 121.26C402.95 122.097 402.864 122.962 402.957 123.784C403.033 124.439 403.266 125.187 403.646 125.664C405.067 127.448 407.344 127.025 408.152 124.711C408.618 123.365 408.807 121.814 408.828 120.356C408.861 118.095 409.253 116.028 410.049 113.957C410.629 112.453 410.837 110.731 411.107 109.087C411.267 108.094 411.221 107.063 411.256 106.33C411.652 106.672 412.145 107.067 412.621 107.493C414.878 109.505 416.505 112.115 417.893 114.965C418.413 116.032 419.018 117.099 419.764 117.948C421.361 119.763 421.971 121.899 421.864 124.45C421.814 125.668 421.82 126.991 422.18 128.096C422.873 130.24 423.338 132.419 423.71 134.661C424.057 136.712 424.749 138.651 426.107 140.132C427.535 141.689 429.482 141.475 430.61 139.649ZM417.653 83.2199C417.221 84.1582 416.519 84.9227 415.873 85.8455C415.48 85.5239 415.128 85.3804 414.985 85.0935C414.339 83.7986 413.571 82.6622 412.562 81.6965C412.192 81.3437 412.185 80.4867 411.979 79.734C413.713 79.2652 414.672 78.1945 415.257 76.4966C416.252 73.6312 416.808 73.3362 420.143 73.7045C417.693 75.6315 417.71 77.9312 418.236 80.5097C418.403 81.3282 418.023 82.41 417.653 83.2199Z" fill="#1ABED6"/>
<path id="Vector_8" d="M394.927 98.6417C393.705 96.924 393.406 95.2801 394.227 93.2785C394.75 91.9918 395.289 90.6845 395.612 89.3195C396.414 85.9691 396.355 82.6652 394.91 79.4974C394.608 78.8341 394.464 78.0311 394.398 77.2754C394.245 75.6663 393.772 74.328 392.747 73.1536C390.936 71.075 388.986 69.3418 386.553 68.345C383.205 66.98 380.097 67.434 377.507 70.2137C375.843 72.0016 374.559 74.2621 373.077 76.2823C372.618 76.9065 372.119 77.5467 371.533 77.9808C368.941 79.9004 366.921 82.3081 366.414 86.0001C366.115 88.1601 365.466 90.0324 364.211 91.7583C362.6 93.976 362.47 97.3102 363.855 99.3782C365.682 102.111 366.012 105.128 365.639 108.401C365.493 109.685 365.423 110.98 365.296 112.543C365.439 113.706 365.483 115.153 365.819 116.502C366.207 118.068 367.28 118.89 368.468 118.537C369.856 118.118 370.821 118.867 371.869 119.631C372.704 120.243 373.569 120.817 374.475 121.275C375.008 121.547 375.383 121.833 375.663 122.474C376.558 124.517 377.656 125.199 379.633 124.754C381.151 124.409 382.602 123.73 384.199 124.079C384.552 124.157 385.005 123.998 385.324 123.777C386.948 122.656 388.805 121.783 390.097 120.267C392.399 117.564 394.503 114.579 396.413 111.477C397.554 109.623 398.397 107.436 397.865 104.892C397.359 102.477 396.225 100.476 394.927 98.6417ZM382.742 105.241C383.567 107.23 383.514 107.262 383.348 109.22C382.319 109.336 381.238 109.457 380.276 109.557C379.474 108.107 378.765 106.808 378.043 105.521C377.431 104.443 376.672 103.597 375.474 103.663C374.595 103.71 374.292 103.105 374.149 102.268C373.997 101.379 373.871 100.48 373.714 99.5919C373.272 97.0978 373.774 94.9149 375.412 93.2245C377.012 91.572 377.654 89.676 377.292 87.1633C377.005 85.1779 378.21 83.9948 379.657 83.1689C379.408 84.4178 379.135 85.6623 378.926 86.9186C378.492 89.4704 379.405 91.3391 381.172 92.7432C381.588 93.0724 382.044 93.3251 382.457 93.6586C383.518 94.5113 383.734 95.2329 383.329 96.6637C383.139 97.3388 382.867 97.9859 382.633 98.6492C381.857 100.864 381.824 103.039 382.742 105.241Z" fill="#1ABED6"/>
<path id="Vector_9" d="M364.328 156.656C364.541 153.395 363.766 150.53 362.231 147.819C360.667 145.058 359.885 142.076 361.063 138.788L361.25 138.04C361.942 135.077 361.626 132.339 359.746 130.067C358.335 128.357 357.948 126.395 358.361 124.138C358.906 121.172 358.727 118.422 357.193 115.763C355.866 113.455 355.636 110.908 356.691 108.178C357.583 105.886 358.165 103.411 358.73 100.972C359.17 99.0722 359.173 97.06 358.558 95.2106C358.058 93.7022 358.188 92.3328 358.498 90.8479C358.827 89.2817 359.011 87.6646 359.19 86.0629C359.33 84.8302 358.978 83.7403 358.188 82.8945C357.15 81.7859 356.791 80.4054 356.963 78.8348C357.17 77.0314 357.469 75.2478 356.661 73.5108C356.518 73.2083 356.602 72.7432 356.624 72.3551C356.824 69.222 356.145 66.3056 355.09 63.4669C354.485 61.8305 354.229 60.1091 354.388 58.3292C354.695 54.8745 354.508 51.4271 353.993 48.0419C353.437 44.4009 352.561 40.8331 351.902 37.2113C351.672 35.9587 351.523 34.6408 351.59 33.3727C351.726 30.7861 351.992 28.2039 352.289 25.6291C352.648 22.5265 353.3 19.5176 354.448 16.656C355.55 13.8874 356.572 11.0723 357.593 8.26095C357.96 7.24495 358.272 6.19418 358.492 5.12353C358.759 3.83615 358.745 2.53696 358.076 1.36633C357.188 -0.188717 356.016 -0.479357 354.851 0.823554C353.903 1.89731 353.004 3.12321 352.368 4.46462C351.118 7.10149 349.68 9.54398 347.946 11.7741C346.737 13.3291 346.222 15.1829 346.148 17.3C346.012 21.4143 345.206 25.269 342.648 28.3822C341.919 29.2702 341.28 30.2707 340.691 31.2941C340.098 32.3101 339.476 33.3609 339.139 34.5048C338.338 37.1995 337.466 39.914 337.056 42.7135C336.514 46.4397 335.675 50.0466 334.826 53.6839C334.121 56.7046 332.916 59.1862 331.099 61.366C329.948 62.7466 329.142 64.383 328.64 66.1895C328.037 68.3532 327.512 70.5404 327.009 72.7395C326.782 73.7399 326.626 74.7752 326.543 75.8024C326.157 80.719 325.85 85.6444 325.422 90.5492C325.318 91.7124 325.409 93.0041 324.716 94.0586L324.42 93.7568C323.315 91.9844 323.182 89.9332 323.012 87.8391C322.619 82.9299 322.19 78.0325 322.36 73.0885C322.41 71.5955 322.36 70.0989 322.399 68.6059C322.433 67.3844 321.993 66.4771 321.201 65.748C320.899 65.4729 320.586 65.217 320.236 64.9139C320.299 63.9948 320.362 63.0912 320.423 62.192C320.565 59.9973 320.309 57.9578 319.091 56.1159C318.655 55.4644 318.465 54.4329 318.472 53.5796C318.488 51.3775 318.665 49.171 318.816 46.9719C318.932 45.1492 318.369 43.6681 317.277 42.4161C316.998 42.1018 316.635 41.846 316.435 41.4777C316.123 40.9039 315.67 40.2406 315.7 39.6438C315.796 37.5149 315.956 35.3705 316.312 33.2845C316.591 31.64 317.234 30.085 317.637 28.4641C318.362 25.5323 319.12 22.6128 319.693 19.6387C319.986 18.1185 319.337 17.0559 318.238 16.479C317.187 15.9163 316.308 16.0517 315.466 17.39C314.018 19.6859 312.664 22.0781 311.433 24.5324C310.89 25.6217 310.667 26.9557 310.424 28.2126C310.021 30.3222 309.589 32.4201 308.238 34.0173C306.776 35.7469 305.978 37.8522 305.459 40.1518C305.375 40.5319 305.208 40.8883 305.016 41.4392C304.104 38.7017 303.731 38.4341 301.754 38.9843C301.684 38.6123 301.658 38.2204 301.535 37.8751C300.986 36.3282 299.941 36.0878 298.956 37.3243C298.543 37.8366 298.123 38.4254 297.92 39.0731C297.158 41.5125 296.39 43.9556 295.794 46.4484C295.202 48.9492 294.902 51.5439 294.326 54.0485C293.055 59.5626 292.12 65.1928 290.079 70.4435C289.83 71.0832 289.736 71.8123 289.624 72.5103C289.032 76.2681 289.122 80.0061 289.803 83.7403C290.619 88.1837 290.539 92.6508 289.944 97.1184C289.564 100.007 288.11 102.236 286.542 104.373C284.06 107.75 282.975 111.635 283.284 116.083C283.433 118.247 283.827 120.303 284.575 122.292C285.874 125.727 286.353 129.244 285.178 132.886C284.981 133.491 284.838 134.135 284.772 134.774C284.595 136.388 284.542 137.97 285.171 139.548C285.528 140.452 285.687 141.537 285.693 142.545C285.717 146.512 285.637 150.476 285.63 154.442C285.627 155.144 285.74 155.865 285.903 156.544C286.133 157.529 286.625 158.336 287.528 158.579C288.506 158.843 289.105 158.099 289.61 157.297C290.515 155.858 291.155 154.268 291.308 152.48C291.588 149.265 292.493 146.296 293.571 143.352C294.057 142.011 294.257 140.471 294.34 139.005C294.5 136.128 293.957 133.321 293.444 130.521C293.318 129.835 293.225 129.086 293.328 128.408C293.837 125.069 294.932 121.978 297.112 119.699C298.906 117.81 299.652 115.677 299.342 112.956C299.272 112.308 299.315 111.641 299.199 111.009C298.83 109.051 299.049 107.162 299.425 105.231C299.938 102.575 300.517 99.9031 300.706 97.2004C301.022 92.7129 301.681 88.3241 302.587 83.9651C303.219 80.9401 303.229 77.9387 302.304 74.9491C301.405 72.0408 301.485 69.094 302.354 66.151C302.787 64.681 303.026 63.1378 303.442 61.6604C303.901 60.024 304.221 58.287 305.526 56.6233C305.632 57.566 305.778 58.1746 305.756 58.7677C305.665 60.7146 305.549 62.6571 305.382 64.5885C305.173 67.0975 305.632 69.2493 307.543 70.7193C308.391 71.3664 308.827 72.3016 308.991 73.4493C309.16 74.6013 309.656 75.6869 310.505 76.1408C312.514 77.2226 312.851 79.2348 313.037 81.4183L313.087 81.9996C313.483 85.8847 314.069 89.6736 315.726 93.1942C316.396 94.6138 316.486 96.4167 316.781 98.0568C316.981 99.1312 316.898 100.314 317.251 101.303C317.946 103.268 317.83 105.22 317.654 107.243C317.291 111.552 318.289 114.041 321.564 114.797C322.373 114.983 322.825 115.557 322.902 116.53C322.985 117.496 323.095 118.461 323.202 119.427C323.481 121.948 323.818 124.46 325.168 126.577C325.957 127.814 326.965 128.529 328.347 128.156C329.485 127.845 330.427 126.492 330.553 124.845C330.673 123.355 330.777 121.851 330.703 120.366C330.503 116.317 331.522 112.684 333.176 109.194C333.649 108.197 334.022 107.05 334.154 105.925C334.394 103.873 334.477 101.788 334.531 99.7124C334.627 95.967 335.206 92.4657 337.792 89.8481L338.128 89.4134C340.451 85.7065 341.766 81.7009 340.951 77.0165C340.328 73.4182 340.864 69.9126 341.686 66.446C341.846 65.7672 342.085 65.112 342.292 64.4451C342.575 65.2443 342.575 65.9579 342.575 66.6708C342.578 68.8736 343.157 70.7466 344.784 72.0613C345.191 72.3904 345.534 72.8407 345.863 73.2822C346.669 74.3721 347.097 75.6012 346.745 77.0593C346.419 78.4355 346.089 79.8086 345.729 81.1773C345.031 83.8415 344.009 86.4548 343.673 89.1768C343.197 93.0389 343.36 96.9669 344.652 100.701C344.914 101.473 345.181 102.298 345.224 103.117C345.311 104.998 345.357 106.894 345.254 108.771C344.898 115.099 346.379 120.714 349.89 125.577C350.802 126.833 350.881 128.155 350.542 129.75C350.08 131.936 349.771 134.189 349.624 136.435C349.461 138.847 350.316 140.739 352.379 141.662L352.665 142.012C352.665 143.237 352.675 144.536 352.659 145.83C352.642 147.552 353.131 149.037 354.249 150.166C355.128 151.058 356.03 151.961 357.025 152.659C358.04 153.376 358.346 154.296 358.2 155.598C358.06 156.82 358.007 158.053 357.937 159.286C357.881 160.321 358.104 161.232 358.962 161.756C359.757 162.24 360.34 161.678 360.935 161.178L361.258 161.155L361.471 161.427C362.446 162.571 363.075 162.764 363.937 162.19C364.795 161.616 364.975 160.779 364.662 159.321C364.475 158.452 364.271 157.529 364.328 156.656Z" fill="#1ABED6"/>
<path id="Vector_10" d="M181.297 55.2545C180.102 55.4873 178.851 55.6035 177.743 56.1233C176.412 56.7437 175.09 57.5696 173.959 58.5931C170.574 61.6566 167.266 64.8437 163.955 68.0196C163.133 68.8108 162.417 69.784 161.229 69.6523C160.204 69.5399 159.375 70.0094 158.617 70.7186C157.398 71.8507 156.22 73.053 154.988 74.1696C154.422 74.682 153.81 75.1627 153.155 75.4961C152.054 76.0625 150.902 76.5003 149.757 76.9965C148.988 75.4185 148.925 73.7703 149.677 72.0606C149.984 71.3707 150.243 70.6223 150.35 69.8659C150.666 67.6402 151.095 65.4219 149.977 63.2427C149.641 62.5913 149.754 61.6181 149.694 60.7847C149.614 59.6911 149.824 58.4422 149.447 57.5274C148.815 56.0034 149.048 54.6732 149.464 53.2504C149.623 52.6958 149.797 52.145 149.926 51.583C150.503 49.1051 150.689 46.5924 150.249 44.0605C149.767 41.2528 147.693 40.3766 145.723 42.1179C145.367 42.4284 145.014 42.7383 144.691 43.0215C142.714 42.4396 142.334 42.5017 141.466 44.0058C141.077 44.6809 140.79 45.5261 140.707 46.3291C140.597 47.4805 140.747 48.6635 140.727 49.8342C140.671 53.4641 140.94 57.1672 140.417 60.7033C139.739 65.2865 138.846 69.8703 137.382 74.256C136.943 75.57 136.81 77.0245 136.537 78.4125C136.281 79.7346 136.094 81.0804 135.755 82.3721C135.225 84.4116 134.546 86.4007 134.021 88.4482C133.838 89.1699 133.828 90.0033 133.908 90.764C134.041 92.0197 134.683 92.9196 135.721 93.3227C136.656 93.6872 137.339 93.1214 137.908 92.3265C138.58 91.3764 139.232 90.4069 139.921 89.4649C140.217 89.0612 140.57 88.7159 140.899 88.3439L141.295 88.6035C141.062 89.7046 140.813 90.81 140.596 91.9235C140.433 92.7377 140.214 93.5636 140.203 94.3858C140.17 97.4102 139.804 100.292 138.416 102.955C137.838 104.073 137.508 105.592 138.493 106.569C139.568 107.64 139.442 108.807 139.245 110.087C138.63 114.115 138.004 118.136 137.351 122.154C137.238 122.852 137.055 123.55 136.795 124.189C135.897 126.389 135.591 128.75 135.138 131.095C134.656 133.616 135.661 135.214 136.942 136.8C137.718 137.766 138.496 137.866 139.278 136.924C140.037 136.013 140.822 134.942 141.142 133.775C141.801 131.355 142.51 128.983 143.441 126.691C143.674 126.109 143.804 125.458 143.921 124.83C144.376 122.352 144.806 119.87 145.248 117.392C145.664 115.046 146.084 112.704 146.56 110.056C148.337 111.025 149.195 109.668 150.12 108.381C150.327 108.086 150.72 107.974 151.119 107.721C151.492 108.876 151.681 109.935 152.154 110.781C152.627 111.622 153.392 112.246 154.014 112.979L154.397 113.615C155.801 116.643 157.355 119.63 157.562 123.174C157.691 125.376 158.634 126.951 160.028 128.254C161.679 129.794 162.614 131.872 163.027 134.175C163.599 137.332 164.963 139.972 166.588 142.446C167.31 143.547 167.652 144.66 167.779 145.986C167.882 147.072 167.965 148.244 168.378 149.189C169.07 150.776 169.6 152.345 169.713 154.145C169.792 155.459 170.684 156.242 171.743 156.262C172.921 156.277 173.497 155.706 173.783 154.214C173.833 153.966 173.84 153.702 173.876 153.315C175.55 153.346 176.379 152.83 176.592 151.333C176.885 149.286 177.074 147.207 176.386 145.179C176.056 144.214 175.787 143.221 175.507 142.233C173.87 136.431 172.296 130.627 172.023 124.438C171.953 122.976 171.274 121.44 170.579 120.157C169.397 117.985 168.505 115.787 168.152 113.2C167.673 109.702 166.445 108.473 163.453 107.892C162.328 107.671 161.31 107.267 160.601 106.096C158.993 103.44 157.339 100.823 155.715 98.1896C155.486 97.817 155.309 97.4102 155.11 97.0184C154.567 95.9713 154.062 94.897 153.482 93.881C152.311 91.8142 152.96 89.3829 154.97 88.483C156.221 87.9284 157.48 87.4093 158.727 86.851C162.281 85.2649 164.748 82.574 165.67 78.0877C166.209 75.4862 167.364 73.2791 169.693 72.2556C170.162 72.0501 170.579 71.6936 171.034 71.4533C173.361 70.2007 175.035 68.1842 176.123 65.5045C176.546 64.4692 177.234 63.7985 177.973 63.0694C179.544 61.5225 180.992 59.8047 182.45 58.1062C182.889 57.5982 183.172 56.9387 182.819 56.1636C182.492 55.4401 181.963 55.1222 181.297 55.2545Z" fill="#1ABED6"/>
<path id="Vector_11" d="M260.073 115.25C259.145 112.66 258.319 110.065 258.469 107.169C258.572 105.172 258.426 103.16 258.489 101.159C258.539 99.5416 258.592 97.8971 258.902 96.3309C259.451 93.5543 260.173 90.8168 260.862 88.0787C261.185 86.8031 261.115 85.5934 260.402 84.5699C259.391 83.108 259.281 81.4716 259.624 79.7812C260.05 77.7026 260.623 75.6595 261.095 73.5921C261.265 72.8518 261.458 72.0724 261.425 71.3197C261.375 70.0367 260.939 68.8493 259.847 68.3264C258.682 67.7637 257.64 68.2873 256.842 69.3306C256.293 70.0485 255.72 70.8353 255.424 71.7159C254.898 73.2747 254.522 74.9148 254.175 76.5475C253.5 79.7464 252.887 82.9689 252.245 86.1759L252.023 86.9087C250.711 89.2661 250.256 91.9185 249.949 94.6448C249.793 96.0595 249.15 96.991 248.009 97.7779C246.358 98.9224 244.821 100.376 243.446 101.946C242.141 103.432 241.097 105.227 239.945 106.891C239.978 105.755 239.926 104.602 240.095 103.502C240.687 99.6782 241.373 95.8701 242.009 92.0471C242.325 90.1393 242.668 88.2234 242.874 86.2964C242.977 85.2922 242.964 84.1911 242.718 83.2335C242.412 82.0504 241.793 80.9531 240.545 80.8643C239.356 80.7711 238.545 81.5269 237.972 82.6714C237.779 83.0633 237.609 83.4781 237.462 83.8967C235.998 88.1278 234.543 92.3619 232.986 96.8799C232.467 94.1188 231.498 92.1135 228.839 92.8239C227.908 91.0205 227.678 89.1475 227.362 87.3136C227.109 85.8592 226.513 84.6494 225.644 83.5912C224.972 82.7727 224.121 82.7727 223.315 83.118C222.493 83.475 221.94 84.1613 221.94 85.3245C221.94 86.2902 221.811 87.2552 221.75 88.2246C221.65 89.8337 221.484 91.4471 221.477 93.0562C221.474 94.7392 221.561 96.434 221.727 98.1089C221.976 100.614 220.662 102.259 219.537 104.252C218.981 102.933 218.426 101.871 218.073 100.719C217.833 99.9477 217.939 99.0448 217.786 98.2262C217.543 96.9618 217.177 95.7322 216.931 94.4684C216.652 93.0221 216.425 91.5602 216.212 90.1057C216.109 89.4002 216.139 88.6755 216.029 87.9769C215.497 84.6035 214.668 81.2921 214.658 77.8138C214.655 76.7276 214.521 75.6073 214.282 74.5565C214.009 73.3741 213.253 72.7493 212.481 72.9549C211.493 73.2225 210.501 73.6101 209.968 74.7149C209.43 75.8395 208.927 77.0065 208.547 78.2162C208.148 79.4924 207.912 80.8376 207.613 82.156C207.406 83.0788 206.963 83.6489 206.085 83.5986C204.477 83.5135 203.669 84.6879 203.096 86.1964C202.694 87.267 202.408 88.3992 201.941 89.4307C200.713 92.1719 200.404 94.9603 201.419 97.8803C201.765 98.8765 201.845 99.8925 201.523 100.917C200.414 104.441 199.881 108.218 198.085 111.448C197.729 112.088 197.416 112.863 197.362 113.608C197.269 114.868 197.017 116.432 197.512 117.377C198.408 119.057 198.578 120.724 198.534 122.554C198.521 122.938 198.568 123.341 198.644 123.714C198.904 124.908 199.709 125.761 200.591 125.815C201.562 125.869 202.162 125.288 202.525 123.822C202.794 122.752 203.117 121.763 203.833 120.949C204.665 119.994 204.842 118.738 204.432 117.509C204.102 116.501 204.352 115.753 204.828 114.985C205.187 114.407 205.616 113.869 205.9 113.248C206.172 112.64 206.462 111.945 206.459 111.29C206.442 109.103 207.45 107.544 208.535 105.849C208.915 106.187 209.141 106.509 209.431 106.629C210.758 107.16 211.231 108.443 211.6 109.828C212.123 111.813 212.526 113.849 213.178 115.772C214.07 118.421 215.142 120.984 216.153 123.582L216.566 124.19C217.119 124.873 217.767 125.058 218.543 124.752C219.565 124.36 220.177 123.55 220.184 122.324C220.19 119.735 220.114 117.14 220.054 114.547C220.02 113.096 219.938 111.642 219.871 109.967C221.046 110.696 221.508 111.526 221.409 112.774C221.362 113.353 221.449 113.953 221.372 114.523C221.069 116.764 222.32 117.993 223.579 119.208C224.061 119.669 224.66 119.677 225.119 119.18C226.311 117.885 227.479 116.559 227.25 114.376C227.186 113.81 227.173 113.194 227.293 112.646C227.756 110.549 227.586 108.532 226.884 106.554C226.65 105.903 226.548 105.279 226.897 104.484C227.709 105.345 228.554 105.953 229.05 106.834C230.219 108.881 231.25 111.037 232.269 113.193C233.074 114.895 233.756 116.671 234.538 118.389C234.947 119.285 235.553 119.994 236.518 119.889C237.497 119.781 238.152 119.168 238.425 118.013C238.595 117.288 238.845 116.59 239.091 115.772L239.307 116.051L239.374 116.625C239.51 119.277 240.745 120.91 242.832 121.806C243.56 122.116 244.272 122.488 244.945 122.927C247.674 124.706 250.765 124.043 252.713 121.224C253.019 120.782 253.309 120.325 253.741 119.67C253.924 120.655 254.07 121.403 254.194 122.151C254.513 124.001 255.289 125.556 256.447 126.839C257.539 128.049 259.026 128.139 260.278 127.15C261.379 126.277 261.962 125.153 261.845 123.536C261.634 120.652 261.021 117.907 260.073 115.25ZM206.89 97.8859C207.859 94.8808 208.771 92.0657 209.679 89.2462L210.112 89.3742C210.112 90.8553 209.929 92.3756 210.162 93.8064C210.381 95.1242 211.05 96.3464 211.62 97.8853H206.89V97.8859ZM250.428 112.582C249.866 113.125 249.443 113.866 248.91 114.464C247.999 115.494 246.857 115.312 246.677 113.951C246.508 112.691 246.8 111.33 246.98 110.031C247.156 108.758 247.609 107.847 248.814 107.285C249.889 106.773 250.738 105.614 251.979 104.481C252.259 107.616 252.697 110.383 250.428 112.582Z" fill="#1ABED6"/>
<path id="Vector_12" d="M462.333 163.1V163.474H461.412V166.273H461.039V163.474H460.116V163.1" fill="#1ABED6"/>
<path id="Vector_13" d="M462.586 163.1H463.112L463.901 165.781L464.683 163.1H465.206V166.273H464.86V164.416L464.863 164.075V163.597L464.081 166.273H463.717L462.916 163.597V163.691L462.936 164.047V166.273H462.586" fill="#1ABED6"/>
</g>
<path id="Vector_14" d="M192.785 124.481V130.737H190.213V170.51H192.785V176.741H182.827V124.481H192.785ZM202.306 159.677L206.664 140.35H211.261L209.628 150.039L205.313 167.866H201.63L202.306 159.677ZM200.585 140.35L203.286 159.524L203.591 167.866H199.125L193.547 140.35H200.585ZM215.14 159.118L217.863 140.35H224.901L219.367 167.866H214.899L215.14 159.118ZM211.785 140.35L216.186 159.626L216.86 167.866H213.136L208.908 150.09L207.34 140.35H211.785ZM226.644 154.387V153.854C226.644 151.836 226.891 149.979 227.385 148.284C227.879 146.572 228.605 145.088 229.564 143.834C230.523 142.579 231.706 141.604 233.116 140.909C234.524 140.197 236.151 139.841 237.996 139.841C239.855 139.841 241.49 140.197 242.898 140.909C244.322 141.604 245.513 142.579 246.472 143.834C247.431 145.088 248.157 146.572 248.651 148.284C249.144 149.979 249.392 151.836 249.392 153.854V154.387C249.392 156.388 249.144 158.244 248.651 159.957C248.157 161.652 247.431 163.136 246.472 164.407C245.513 165.662 244.33 166.637 242.92 167.332C241.511 168.027 239.885 168.374 238.039 168.374C236.195 168.374 234.561 168.027 233.137 167.332C231.714 166.637 230.523 165.662 229.564 164.407C228.605 163.136 227.879 161.652 227.385 159.957C226.891 158.244 226.644 156.388 226.644 154.387ZM233.987 153.854V154.387C233.987 155.422 234.053 156.388 234.183 157.287C234.314 158.185 234.531 158.973 234.836 159.652C235.142 160.313 235.556 160.83 236.078 161.203C236.601 161.576 237.256 161.762 238.039 161.762C238.809 161.762 239.448 161.576 239.957 161.203C240.48 160.83 240.894 160.313 241.199 159.652C241.504 158.973 241.722 158.185 241.853 157.287C241.983 156.388 242.049 155.422 242.049 154.387V153.854C242.049 152.853 241.983 151.912 241.853 151.031C241.722 150.132 241.504 149.344 241.199 148.666C240.894 147.97 240.48 147.428 239.957 147.038C239.433 146.648 238.78 146.453 237.996 146.453C237.226 146.453 236.58 146.648 236.057 147.038C235.549 147.428 235.142 147.97 234.836 148.666C234.531 149.344 234.314 150.132 234.183 151.031C234.053 151.912 233.987 152.853 233.987 153.854ZM260.068 147.165V167.866H252.725V140.35H259.588L260.068 147.165ZM267.04 140.146L266.909 148.106C266.619 148.072 266.227 148.03 265.733 147.979C265.239 147.928 264.825 147.903 264.491 147.903C263.634 147.903 262.893 148.021 262.268 148.259C261.658 148.479 261.15 148.818 260.743 149.276C260.351 149.717 260.06 150.276 259.872 150.954C259.697 151.633 259.618 152.421 259.632 153.319L258.303 152.302C258.303 150.454 258.455 148.776 258.76 147.267C259.08 145.741 259.53 144.427 260.111 143.325C260.693 142.206 261.397 141.35 262.225 140.757C263.053 140.146 263.982 139.841 265.014 139.841C265.377 139.841 265.733 139.867 266.081 139.917C266.444 139.968 266.764 140.045 267.04 140.146ZM277.325 128.804V167.866H269.959V128.804H277.325ZM295.409 161.559V128.804H302.796V167.866H296.172L295.409 161.559ZM280.942 154.438V153.904C280.942 151.819 281.137 149.92 281.529 148.208C281.922 146.479 282.502 144.995 283.273 143.757C284.043 142.503 285.001 141.537 286.149 140.858C287.297 140.18 288.618 139.841 290.114 139.841C291.45 139.841 292.62 140.206 293.622 140.935C294.625 141.647 295.481 142.647 296.193 143.936C296.906 145.224 297.486 146.733 297.937 148.462C298.387 150.175 298.728 152.022 298.961 154.006V154.642C298.728 156.507 298.387 158.27 297.937 159.931C297.486 161.576 296.906 163.034 296.193 164.305C295.481 165.577 294.617 166.577 293.601 167.306C292.598 168.018 291.422 168.374 290.071 168.374C288.575 168.374 287.253 168.027 286.105 167.332C284.973 166.637 284.021 165.662 283.251 164.407C282.496 163.153 281.922 161.678 281.529 159.982C281.137 158.287 280.942 156.439 280.942 154.438ZM288.285 153.904V154.438C288.285 155.473 288.342 156.43 288.458 157.312C288.575 158.194 288.77 158.973 289.047 159.652C289.337 160.313 289.715 160.83 290.18 161.203C290.66 161.576 291.247 161.762 291.945 161.762C292.888 161.762 293.665 161.5 294.276 160.974C294.9 160.448 295.359 159.702 295.649 158.736C295.954 157.77 296.085 156.634 296.04 155.328V153.319C296.07 152.2 296.004 151.217 295.844 150.369C295.685 149.505 295.43 148.784 295.082 148.208C294.747 147.631 294.32 147.199 293.797 146.911C293.289 146.606 292.685 146.453 291.988 146.453C291.305 146.453 290.724 146.64 290.246 147.013C289.781 147.386 289.403 147.911 289.113 148.589C288.821 149.25 288.611 150.039 288.48 150.954C288.349 151.853 288.285 152.836 288.285 153.904ZM305.192 130.737V124.481H315.149V176.741H305.192V170.51H307.807V130.737H305.192Z" fill="black"/>
</g>
<defs>
<clipPath id="clip0_96_310">
<rect width="533" height="182" fill="white"/>
</clipPath>
</defs>
</svg>
