<svg width="36" height="36" viewBox="0 0 36 36" fill="none" xmlns="http://www.w3.org/2000/svg">
<path d="M0 15C0 6.71573 6.71573 0 15 0H21C29.2843 0 36 6.71573 36 15V21C36 29.2843 29.2843 36 21 36H15C6.71573 36 0 29.2843 0 21V15Z" fill="#BFDE42"/>
<path d="M18.7586 16.9881V16.9546C18.7516 16.9659 18.7442 16.9772 18.7368 16.9881H18.7586Z" fill="#BFDE42"/>
<path d="M26.9593 7.40186H8.96189C8.10047 7.40186 7.40186 8.08381 7.40186 8.92429V27.1324C7.40186 27.9724 8.10047 28.6544 8.96189 28.6544H26.9593C27.822 28.6544 28.5206 27.972 28.5206 27.1324V8.92429C28.5206 8.08338 27.8216 7.40186 26.9593 7.40186ZM13.8031 25.1929H10.6134V15.5964H13.8031V25.1929ZM12.2084 14.2855H12.1871C11.1171 14.2855 10.4249 13.5484 10.4249 12.6276C10.4249 11.6863 11.1385 10.9697 12.2294 10.9697C13.3207 10.9697 13.9919 11.6863 14.0133 12.6276C14.0133 13.5484 13.3202 14.2855 12.2084 14.2855ZM25.3053 25.1929H22.1156V20.0577C22.1156 18.7682 21.6541 17.888 20.5 17.888C19.6189 17.888 19.0942 18.4815 18.863 19.0549C18.7789 19.2596 18.7583 19.5458 18.7583 19.833V25.1925H15.5686C15.5686 25.1925 15.6105 16.4954 15.5686 15.596H18.7583V16.9543C19.1822 16.3006 19.9402 15.3695 21.6336 15.3695C23.732 15.3695 25.3057 16.7415 25.3057 19.6894L25.3053 25.1929Z" fill="#42B4CA"/>
</svg>
