<svg width="36" height="36" viewBox="0 0 36 36" fill="none" xmlns="http://www.w3.org/2000/svg">
<path d="M0 15C0 6.71573 6.71573 0 15 0H21C29.2843 0 36 6.71573 36 15V21C36 29.2843 29.2843 36 21 36H15C6.71573 36 0 29.2843 0 21V15Z" fill="#BFDE42"/>
<path fill-rule="evenodd" clip-rule="evenodd" d="M18.0001 7.6543C12.2868 7.6543 7.6543 12.4023 7.6543 18.2634C7.6543 22.9513 10.6195 26.9233 14.7301 28.3274C15.2474 28.4244 15.4367 28.0965 15.4367 27.8147C15.4367 27.5607 15.4275 26.8956 15.4229 26.0088C12.5455 26.6508 11.9358 24.5863 11.9358 24.5863C11.4647 23.3624 10.7857 23.0344 10.7857 23.0344C9.84816 22.374 10.855 22.3878 10.855 22.3878C11.8942 22.4617 12.4392 23.4824 12.4392 23.4824C13.363 25.1036 14.8594 24.6371 15.4506 24.3646C15.543 23.681 15.8108 23.2099 16.1064 22.9467C13.811 22.6788 11.3954 21.7689 11.3954 17.7045C11.3954 16.5452 11.7972 15.5984 12.4577 14.8594C12.3515 14.5915 11.9958 13.5108 12.5593 12.0513C12.5593 12.0513 13.4276 11.7649 15.4044 13.1366C16.2311 12.9011 17.1133 12.7856 17.9955 12.781C18.873 12.7856 19.7598 12.9011 20.5865 13.1366C22.5633 11.7649 23.427 12.0513 23.427 12.0513C23.9905 13.5108 23.6349 14.5915 23.5286 14.8594C24.1891 15.603 24.5909 16.5498 24.5909 17.7045C24.5909 21.7782 22.1707 22.6742 19.866 22.9374C20.2355 23.2654 20.5681 23.912 20.5681 24.9004C20.5681 26.3183 20.5542 27.4637 20.5542 27.8101C20.5542 28.0919 20.739 28.4244 21.2655 28.3182C25.3853 26.9187 28.3459 22.9467 28.3459 18.2634C28.3459 12.4023 23.7134 7.6543 18.0001 7.6543Z" fill="#42B4CA"/>
</svg>
